<?xml version="1.0" encoding="UTF-8" standalone="no"?>
<!DOCTYPE svg PUBLIC "-//W3C//DTD SVG 1.1//EN" "http://www.w3.org/Graphics/SVG/1.1/DTD/svg11.dtd">
<svg xmlns="http://www.w3.org/2000/svg" version="1.1" viewBox="0.00 0.00 367.00 179.00">
<path fill="#ffffff" d="
  M 93.45 109.05
  C 72.64 78.07 72.32 37.52 93.44 6.59
  Q 93.85 6.00 94.25 6.60
  C 115.16 38.08 115.25 77.62 94.24 109.05
  A 0.48 0.47 -44.8 0 1 93.45 109.05
  Z
  M 93.47 31.05
  A 0.31 0.31 0.0 0 1 94.02 31.05
  Q 104.21 50.35 104.47 72.22
  A 0.32 0.32 0.0 0 0 105.11 72.26
  Q 109.10 42.10 94.40 15.78
  A 0.70 0.70 0.0 0 0 93.17 15.79
  C 83.49 33.66 80.27 52.09 82.48 72.77
  Q 82.57 73.61 82.68 72.78
  C 83.29 67.74 83.66 61.92 84.42 57.69
  Q 86.93 43.69 93.47 31.05
  Z
  M 94.18 104.10
  C 99.59 93.15 99.35 80.77 94.34 69.58
  A 0.54 0.54 0.0 0 0 93.35 69.57
  Q 85.44 86.83 93.37 104.09
  A 0.45 0.45 0.0 0 0 94.18 104.10
  Z"
/>
<path fill="#ffffff" d="
  M 100.09 144.41
  C 103.17 129.02 85.60 120.64 73.96 129.82
  Q 73.25 130.38 73.25 129.48
  L 73.25 113.13
  Q 73.25 112.50 73.87 112.50
  L 114.25 112.50
  A 0.50 0.50 0.0 0 1 114.75 113.00
  L 114.75 150.57
  Q 114.75 151.14 114.34 151.55
  Q 95.95 170.07 70.93 168.94
  C 27.19 166.97 2.15 118.23 26.40 81.59
  Q 41.59 58.63 71.62 55.99
  Q 73.50 55.82 73.50 57.71
  L 73.50 98.23
  A 0.63 0.63 0.0 0 1 72.89 98.86
  C 48.99 99.59 34.17 125.01 46.35 146.08
  C 53.78 158.95 69.30 164.83 83.46 160.16
  C 90.38 157.87 98.58 151.95 100.09 144.41
  Z"
/>
<path fill="#ffffff" d="
  M 132.50 64.10
  L 132.50 112.14
  A 0.60 0.60 0.0 0 1 131.90 112.74
  L 121.60 112.75
  A 0.60 0.60 0.0 0 1 121.00 112.15
  L 121.00 56.85
  A 0.60 0.60 0.0 0 1 121.60 56.25
  L 142.15 56.25
  A 0.60 0.60 0.0 0 1 142.75 56.85
  L 142.75 62.90
  A 0.60 0.60 0.0 0 1 142.15 63.50
  L 133.10 63.50
  A 0.60 0.60 0.0 0 0 132.50 64.10
  Z"
/>
<path fill="#ffffff" d="
  M 159.11 97.83
  L 155.11 97.79
  A 0.59 0.59 0.0 0 0 154.51 98.34
  L 153.57 112.20
  A 0.59 0.59 0.0 0 1 152.98 112.75
  L 142.88 112.75
  A 0.59 0.59 0.0 0 1 142.30 112.10
  L 148.05 56.78
  A 0.59 0.59 0.0 0 1 148.64 56.25
  L 165.54 56.25
  A 0.59 0.59 0.0 0 1 166.13 56.78
  L 171.89 112.16
  A 0.59 0.59 0.0 0 1 171.30 112.81
  L 161.21 112.72
  A 0.59 0.59 0.0 0 1 160.62 112.17
  L 159.69 98.38
  A 0.59 0.59 0.0 0 0 159.11 97.83
  Z
  M 156.87 64.75
  C 155.93 73.33 155.53 82.12 155.00 90.71
  Q 154.97 91.25 155.51 91.25
  L 158.45 91.25
  Q 159.16 91.25 159.12 90.54
  L 157.40 64.76
  Q 157.20 61.70 156.87 64.75
  Z"
/>
<path fill="#ffffff" d="
  M 195.48 83.65
  C 204.03 84.55 201.49 96.64 201.42 104.21
  C 201.37 110.88 197.64 112.77 191.63 112.76
  C 184.69 112.74 175.50 114.44 175.28 104.48
  Q 175.16 98.88 175.29 93.23
  Q 175.30 92.75 175.78 92.75
  L 186.21 92.75
  Q 186.70 92.75 186.71 93.24
  C 186.76 95.26 185.18 106.94 189.61 104.63
  A 0.74 0.74 0.0 0 0 190.00 103.98
  L 190.00 89.38
  A 2.28 2.28 0.0 0 0 187.89 87.11
  L 181.54 86.62
  Q 181.00 86.58 181.00 86.03
  L 181.00 81.23
  Q 181.00 80.57 181.66 80.54
  C 185.29 80.37 189.95 81.68 189.99 76.23
  C 190.00 74.88 191.32 61.20 187.45 63.96
  A 1.67 1.64 72.6 0 0 186.76 65.31
  L 186.75 74.00
  Q 186.75 74.50 186.25 74.50
  L 175.99 74.50
  Q 175.34 74.50 175.31 73.86
  C 175.08 68.67 173.93 59.64 179.50 57.06
  C 182.37 55.73 187.29 56.26 190.82 56.25
  C 196.85 56.23 200.88 57.16 201.25 63.83
  C 201.60 70.22 203.97 81.10 195.45 83.25
  Q 194.33 83.53 195.48 83.65
  Z"
/>
<path fill="#ffffff" d="
  M 218.75 64.08
  L 218.75 112.16
  A 0.58 0.58 0.0 0 1 218.17 112.74
  L 207.83 112.75
  A 0.58 0.58 0.0 0 1 207.25 112.17
  L 207.25 56.83
  A 0.58 0.58 0.0 0 1 207.83 56.25
  L 232.92 56.25
  A 0.58 0.58 0.0 0 1 233.50 56.83
  L 233.50 112.17
  A 0.58 0.58 0.0 0 1 232.92 112.75
  L 222.58 112.75
  A 0.58 0.58 0.0 0 1 222.00 112.17
  L 222.00 64.08
  A 0.58 0.58 0.0 0 0 221.42 63.50
  L 219.33 63.50
  A 0.58 0.58 0.0 0 0 218.75 64.08
  Z"
/>
<path fill="#ffffff" d="
  M 251.25 94.21
  L 251.25 112.25
  Q 251.25 112.75 250.75 112.75
  L 240.25 112.75
  A 0.50 0.50 0.0 0 1 239.75 112.25
  L 239.75 56.76
  Q 239.75 56.27 240.24 56.27
  Q 249.04 56.21 257.75 56.26
  C 263.66 56.30 265.72 59.26 266.05 65.01
  Q 266.85 78.76 266.03 86.26
  C 265.05 95.15 258.13 93.12 251.87 93.55
  Q 251.25 93.59 251.25 94.21
  Z
  M 251.25 64.17
  L 251.25 86.49
  A 0.74 0.74 0.0 0 0 251.99 87.23
  L 252.16 87.23
  A 3.01 2.59 90.0 0 0 254.75 84.22
  L 254.75 66.44
  A 3.01 2.59 -90.0 0 0 252.16 63.43
  L 251.99 63.43
  A 0.74 0.74 0.0 0 0 251.25 64.17
  Z"
/>
<path fill="#ffffff" d="
  M 297.71 105.02
  A 7.71 7.71 0.0 0 1 290.00 112.73
  L 279.20 112.73
  A 7.71 7.71 0.0 0 1 271.49 105.02
  L 271.49 63.96
  A 7.71 7.71 0.0 0 1 279.20 56.25
  L 290.00 56.25
  A 7.71 7.71 0.0 0 1 297.71 63.96
  L 297.71 105.02
  Z
  M 286.22 65.18
  A 1.59 1.59 0.0 0 0 284.63 63.59
  L 284.59 63.59
  A 1.59 1.59 0.0 0 0 283.00 65.18
  L 283.00 103.62
  A 1.59 1.59 0.0 0 0 284.59 105.21
  L 284.63 105.21
  A 1.59 1.59 0.0 0 0 286.22 103.62
  L 286.22 65.18
  Z"
/>
<path fill="#ffffff" d="
  M 314.75 79.52
  L 314.75 112.34
  A 0.40 0.40 0.0 0 1 314.35 112.74
  L 303.88 112.75
  Q 303.25 112.75 303.25 112.13
  L 303.25 56.88
  Q 303.25 56.25 303.87 56.25
  L 317.48 56.25
  Q 318.08 56.25 318.19 56.84
  Q 321.36 73.53 324.36 90.17
  Q 324.62 91.62 325.40 93.54
  Q 325.57 93.94 325.64 93.51
  L 332.43 56.73
  A 0.59 0.59 0.0 0 1 333.01 56.25
  L 347.00 56.25
  A 0.50 0.50 0.0 0 1 347.50 56.75
  L 347.50 112.25
  Q 347.50 112.75 347.00 112.75
  L 336.54 112.75
  Q 336.03 112.75 336.03 112.24
  Q 335.93 97.45 336.03 82.76
  Q 336.05 80.72 335.64 78.76
  Q 335.54 78.25 335.45 78.76
  L 330.05 112.16
  Q 329.95 112.75 329.35 112.75
  L 321.34 112.75
  Q 320.66 112.75 320.56 112.08
  L 315.29 79.48
  A 0.27 0.27 0.0 0 0 314.75 79.52
  Z"
/>
<path fill="#ffffff" d="
  M 348.00 168.43
  A 0.57 0.57 0.0 0 1 347.43 169.00
  L 121.57 169.00
  A 0.57 0.57 0.0 0 1 121.00 168.43
  L 121.00 130.57
  A 0.57 0.57 0.0 0 1 121.57 130.00
  L 347.43 130.00
  A 0.57 0.57 0.0 0 1 348.00 130.57
  L 348.00 168.43
  Z
  M 337.56 148.57
  C 345.96 139.72 328.33 131.01 325.49 143.17
  A 1.68 1.68 0.0 0 0 327.01 145.23
  C 328.27 145.33 331.25 145.73 331.02 143.45
  Q 330.96 142.90 331.25 142.42
  Q 331.85 141.47 333.01 141.79
  A 1.46 1.43 0.5 0 1 334.04 142.82
  Q 335.02 146.59 331.71 147.00
  Q 331.25 147.05 331.25 147.52
  L 331.25 150.50
  Q 331.25 151.02 331.76 151.08
  C 334.96 151.45 334.96 154.53 333.99 156.81
  Q 333.69 157.51 332.95 157.30
  L 331.41 156.88
  Q 330.68 156.67 330.92 155.95
  Q 331.26 154.96 330.55 154.38
  Q 330.09 154.00 329.50 154.00
  L 326.02 154.00
  Q 325.48 154.00 325.47 154.54
  Q 325.41 160.88 331.21 161.76
  C 339.05 162.95 344.49 154.44 337.63 149.40
  Q 337.12 149.02 337.56 148.57
  Z
  M 141.83 148.32
  C 145.67 144.43 143.80 137.99 137.98 137.77
  Q 133.80 137.61 129.39 137.81
  Q 128.75 137.83 128.75 138.48
  L 128.75 160.54
  Q 128.75 161.23 129.45 161.24
  C 135.68 161.29 146.06 162.66 143.81 152.31
  C 143.51 150.91 142.63 150.23 141.78 149.13
  Q 141.45 148.70 141.83 148.32
  Z
  M 172.25 146.14
  A 0.61 0.61 0.0 0 1 171.64 146.75
  L 169.36 146.75
  A 0.61 0.61 0.0 0 1 168.75 146.14
  L 168.75 138.40
  A 0.61 0.61 0.0 0 0 168.15 137.79
  L 163.62 137.73
  A 0.61 0.61 0.0 0 0 163.00 138.34
  L 163.00 160.66
  A 0.61 0.61 0.0 0 0 163.62 161.27
  L 168.15 161.21
  A 0.61 0.61 0.0 0 0 168.75 160.60
  L 168.75 152.11
  A 0.61 0.61 0.0 0 1 169.36 151.50
  L 171.64 151.50
  A 0.61 0.61 0.0 0 1 172.25 152.11
  L 172.25 160.64
  A 0.61 0.61 0.0 0 0 172.86 161.25
  L 177.39 161.25
  A 0.61 0.61 0.0 0 0 178.00 160.64
  L 178.00 138.33
  A 0.61 0.61 0.0 0 0 177.38 137.72
  L 172.85 137.83
  A 0.61 0.61 0.0 0 0 172.25 138.44
  L 172.25 146.14
  Z
  M 202.58 149.58
  L 202.81 139.34
  A 1.61 1.60 89.0 0 0 201.12 137.70
  L 197.79 137.89
  Q 197.25 137.92 197.25 138.46
  L 197.25 160.51
  Q 197.25 161.20 197.94 161.21
  L 202.25 161.27
  Q 202.97 161.28 203.19 160.61
  L 206.80 149.97
  Q 207.13 148.99 207.05 150.03
  L 206.33 159.60
  A 1.53 1.53 0.0 0 0 207.86 161.25
  L 211.63 161.25
  Q 212.25 161.25 212.25 160.62
  L 212.25 138.35
  Q 212.25 137.70 211.60 137.72
  L 207.08 137.83
  Q 206.48 137.84 206.30 138.42
  L 202.76 149.61
  Q 202.57 150.22 202.58 149.58
  Z
  M 241.06 150.27
  L 240.33 160.39
  Q 240.28 161.20 241.08 161.21
  L 245.61 161.27
  Q 246.25 161.28 246.25 160.64
  L 246.25 138.50
  Q 246.25 137.75 245.50 137.75
  L 241.74 137.75
  A 1.69 1.68 -82.0 0 0 240.12 138.98
  Q 238.66 144.18 236.92 149.29
  Q 236.51 150.50 236.58 149.23
  L 237.14 138.43
  Q 237.18 137.68 236.43 137.70
  L 231.93 137.86
  Q 231.25 137.88 231.25 138.56
  L 231.25 160.44
  Q 231.25 161.13 231.94 161.15
  L 236.57 161.28
  Q 237.04 161.30 237.19 160.85
  L 240.76 150.21
  Q 241.14 149.07 241.06 150.27
  Z
  M 271.25 143.27
  A 0.77 0.77 0.0 0 1 272.02 142.50
  L 277.99 142.50
  A 0.77 0.77 0.0 0 0 278.76 141.73
  L 278.73 138.52
  A 0.77 0.77 0.0 0 0 277.96 137.75
  L 266.27 137.75
  A 0.77 0.77 0.0 0 0 265.50 138.52
  L 265.50 160.47
  A 0.77 0.77 0.0 0 0 266.27 161.24
  L 270.48 161.24
  A 0.77 0.77 0.0 0 0 271.25 160.47
  L 271.25 143.27
  Z
  M 300.11 157.48
  A 0.81 0.81 0.0 0 1 300.95 156.72
  L 304.06 156.81
  A 0.81 0.81 0.0 0 1 304.84 157.55
  L 305.08 160.43
  A 0.81 0.81 0.0 0 0 305.87 161.18
  L 310.12 161.28
  A 0.81 0.81 0.0 0 0 310.93 160.29
  L 306.07 138.38
  A 0.81 0.81 0.0 0 0 305.28 137.74
  L 299.66 137.76
  A 0.81 0.81 0.0 0 0 298.87 138.39
  L 294.06 160.30
  A 0.81 0.81 0.0 0 0 294.88 161.29
  L 299.16 161.15
  A 0.81 0.81 0.0 0 0 299.94 160.39
  L 300.11 157.48
  Z"
/>
<path fill="#ffffff" d="
  M 134.51 142.87
  A 0.64 0.64 0.0 0 1 135.15 142.24
  L 136.15 142.24
  A 1.86 1.73 0.2 0 1 138.00 143.98
  L 138.00 145.02
  A 1.86 1.73 0.2 0 1 136.13 146.74
  L 135.13 146.74
  A 0.64 0.64 0.0 0 1 134.49 146.09
  L 134.51 142.87
  Z"
/>
<path fill="#ffffff" d="
  M 301.46 152.23
  A 0.24 0.24 0.0 0 1 301.23 151.98
  L 301.24 151.79
  A 6.79 1.00 -88.0 0 1 302.48 145.04
  L 302.54 145.04
  A 6.79 1.00 -88.0 0 1 303.30 151.86
  L 303.29 152.05
  A 0.24 0.24 0.0 0 1 303.04 152.29
  L 301.46 152.23
  Z"
/>
<path fill="#ffffff" d="
  M 134.48 151.89
  A 0.68 0.68 0.0 0 1 135.15 151.21
  L 135.62 151.20
  A 2.61 2.59 -0.3 0 1 138.25 153.78
  L 138.25 154.34
  A 2.61 2.59 -0.3 0 1 135.66 156.94
  L 135.19 156.95
  A 0.68 0.68 0.0 0 1 134.50 156.27
  L 134.48 151.89
  Z"
/>
</svg>
